<?xml version="1.0" encoding="UTF-8"?>
<svg xmlns="http://www.w3.org/2000/svg" xmlns:xlink="http://www.w3.org/1999/xlink" width="2414.04" height="3758" viewBox="0 0 2414.04 3758">
<defs>
<clipPath id="clip-0">
<path clip-rule="nonzero" d="M 0 0 L 2414.039062 0 L 2414.039062 3758 L 0 3758 Z M 0 0 "/>
</clipPath>
<clipPath id="clip-1">
<path clip-rule="nonzero" d="M 1292 2882 L 1300 2882 L 1300 2884 L 1292 2884 Z M 1292 2882 "/>
</clipPath>
<clipPath id="clip-2">
<path clip-rule="nonzero" d="M 1299.019531 2882.210938 C 1297.210938 2882.261719 1295.398438 2882.308594 1293.601562 2882.359375 C 1293.230469 2882.589844 1292.859375 2882.828125 1292.5 2883.058594 Z M 1299.019531 2882.210938 "/>
</clipPath>
<clipPath id="clip-3">
<path clip-rule="nonzero" d="M 1299.019531 2882.210938 C 1297.210938 2882.261719 1295.398438 2882.308594 1293.601562 2882.359375 C 1293.230469 2882.589844 1292.859375 2882.828125 1292.5 2883.058594 L 1299.019531 2882.210938 "/>
</clipPath>
<clipPath id="clip-4">
<path clip-rule="nonzero" d="M 1107 2889 L 1134 2889 L 1134 2906 L 1107 2906 Z M 1107 2889 "/>
</clipPath>
<clipPath id="clip-5">
<path clip-rule="nonzero" d="M 1133.890625 2903.429688 C 1128.261719 2902.671875 1122.488281 2901.621094 1118.5 2898.519531 C 1113.359375 2894.53125 1112.769531 2889.578125 1107.410156 2889.078125 C 1110.339844 2896.230469 1114.53125 2901.671875 1119.609375 2905.769531 L 1129.640625 2904.449219 C 1131.058594 2904.109375 1132.46875 2903.761719 1133.890625 2903.429688 Z M 1133.890625 2903.429688 "/>
</clipPath>
<clipPath id="clip-6">
<path clip-rule="nonzero" d="M 1133.890625 2903.429688 C 1128.261719 2902.671875 1122.488281 2901.621094 1118.5 2898.519531 C 1113.359375 2894.53125 1112.769531 2889.578125 1107.410156 2889.078125 C 1110.339844 2896.230469 1114.53125 2901.671875 1119.609375 2905.769531 L 1129.640625 2904.449219 C 1131.058594 2904.109375 1132.46875 2903.761719 1133.890625 2903.429688 "/>
</clipPath>
</defs>
<g clip-path="url(#clip-0)">
<path fill-rule="nonzero" fill="rgb(83.59375%, 96.484375%, 96.875%)" fill-opacity="1" d="M 2413.171875 3652.761719 C 2405.519531 3631.261719 2385.851562 3608.691406 2387.058594 3587.199219 C 2387.960938 3571.050781 2397.128906 3558.058594 2409.179688 3548.011719 C 2405.359375 3547.878906 2401.53125 3547.429688 2397.671875 3546.589844 C 2382.050781 3543.179688 2376.25 3532.328125 2366.46875 3520.441406 C 2362.859375 3516.039062 2366.519531 3509.179688 2372.179688 3509.730469 L 2374.128906 3509.921875 C 2381.039062 3455.140625 2324.480469 3406.789062 2336.609375 3351.71875 C 2341.628906 3328.910156 2358.660156 3319.019531 2378.859375 3312.449219 C 2375.46875 3305.910156 2372.71875 3299.011719 2370.929688 3291.519531 C 2369.910156 3287.269531 2374.019531 3283.539062 2378.039062 3283.859375 C 2386.628906 3284.570312 2394.261719 3286.238281 2401.011719 3288.769531 L 2398.300781 3207.46875 C 2397.058594 3202.78125 2396.058594 3198.039062 2395.269531 3193.371094 C 2390.449219 3164.898438 2393.890625 3136.238281 2394.960938 3107.660156 L 2393.558594 3065.808594 C 2393.019531 3061.738281 2392.328125 3057.671875 2391.441406 3053.609375 C 2391.039062 3051.800781 2391.679688 3049.550781 2392.96875 3048.121094 L 2389.828125 2954.109375 C 2388.269531 2954.511719 2386.621094 2954.851562 2384.898438 2955.148438 C 2380.078125 2955.980469 2375.691406 2950.988281 2377.640625 2946.320312 C 2380.828125 2938.691406 2384.839844 2931.488281 2388.839844 2924.269531 L 2387.351562 2879.789062 C 2384.691406 2870.148438 2381.351562 2860.691406 2376.761719 2851.578125 C 2374.320312 2846.71875 2378.519531 2842.480469 2382.980469 2842.480469 C 2378.269531 2831 2372.660156 2818.28125 2372.578125 2805.949219 C 2372.5 2793.351562 2377.101562 2785.519531 2383.96875 2778.601562 L 2379.148438 2634.21875 C 2362.320312 2606.730469 2348.960938 2577.851562 2354.628906 2544.179688 C 2355.160156 2541.039062 2358.171875 2537.46875 2361.800781 2538.28125 C 2366.578125 2539.351562 2371.269531 2539.300781 2375.96875 2539 L 2374.101562 2482.789062 C 2364.308594 2456.96875 2350.03125 2431.589844 2346.871094 2405.011719 C 2346.429688 2401.308594 2348.621094 2398.238281 2352.21875 2397.410156 C 2358.519531 2395.949219 2364.828125 2395.269531 2371.171875 2395.058594 L 2368.589844 2317.960938 C 2364.121094 2328.058594 2359.101562 2338.019531 2353.710938 2347.949219 C 2351.101562 2352.769531 2342.191406 2350.621094 2341.921875 2345.21875 C 2340.261719 2312.828125 2348.609375 2284.671875 2357.828125 2255.480469 C 2349.121094 2262.820312 2338.941406 2267.75 2326.191406 2267.660156 C 2322.550781 2267.640625 2320.070312 2263.789062 2320.289062 2260.488281 C 2322.238281 2232.128906 2340.789062 2209.621094 2364.519531 2195.898438 L 2363.269531 2158.660156 C 2361.558594 2161.699219 2359.75 2164.730469 2357.808594 2167.738281 C 2354.910156 2172.238281 2346.359375 2170.660156 2346.019531 2165.011719 C 2343.628906 2125.511719 2337.820312 2084.140625 2352.210938 2046.191406 C 2353.261719 2043.441406 2356.101562 2041.808594 2358.980469 2042.011719 C 2359.121094 2042.019531 2359.25 2041.980469 2359.371094 2041.921875 L 2357.460938 1984.671875 C 2350.109375 1989.839844 2341.140625 1993.621094 2330.230469 1995.558594 C 2326.71875 1996.179688 2323.238281 1993.691406 2322.628906 1990.210938 C 2321.300781 1982.570312 2320.371094 1974.398438 2325.640625 1967.980469 C 2329.28125 1963.539062 2335.628906 1962.929688 2339.179688 1958.660156 C 2343.058594 1954.011719 2344.410156 1940.550781 2346.300781 1934.589844 C 2348.199219 1928.539062 2350.191406 1922.511719 2352.011719 1916.441406 C 2352.230469 1915.699219 2352.429688 1914.96875 2352.648438 1914.238281 C 2352.359375 1903.570312 2352.738281 1892.921875 2354.039062 1882.300781 L 2350.859375 1786.898438 C 2349.890625 1784.78125 2348.890625 1782.660156 2347.820312 1780.550781 C 2347.671875 1780.261719 2347.519531 1779.96875 2347.371094 1779.679688 C 2346.539062 1790.691406 2345.679688 1801.699219 2344.820312 1812.710938 C 2344.148438 1821.238281 2331.570312 1819.769531 2331.738281 1811.429688 C 2332.199219 1789.039062 2332.421875 1766.75 2330.339844 1744.648438 C 2325.011719 1731.300781 2321.679688 1717.410156 2323.46875 1702.800781 C 2324.410156 1695.128906 2334.671875 1695.320312 2336.480469 1702.308594 C 2337.351562 1705.679688 2338.109375 1709.058594 2338.820312 1712.449219 C 2341.570312 1665.71875 2343.078125 1618.941406 2341.671875 1572.109375 C 2339.199219 1490.058594 2328.761719 1404.71875 2290.550781 1330.921875 C 2288.199219 1326.371094 2292.398438 1321.261719 2297.160156 1321.640625 C 2310.988281 1322.71875 2323.941406 1321.070312 2335.148438 1316.609375 L 2331.28125 1200.640625 C 2329.308594 1200.601562 2327.300781 1199.691406 2326.089844 1198.238281 C 2290.671875 1155.929688 2313.871094 1105.148438 2326.480469 1056.941406 L 2323.730469 974.460938 C 2321.949219 970.378906 2319.988281 966.308594 2317.890625 962.191406 C 2312.03125 950.730469 2304.761719 935.519531 2307.769531 922.261719 C 2309.03125 916.699219 2313.78125 912.308594 2314.878906 906.929688 C 2316.359375 899.71875 2312.890625 889.710938 2310.828125 882.980469 C 2305.25 864.71875 2296.328125 847.140625 2283.550781 832.878906 C 2281.769531 830.890625 2281.441406 826.910156 2283.300781 824.859375 C 2303.78125 802.339844 2314.921875 774.449219 2316.109375 746.308594 L 2315.5 728.148438 C 2312.910156 705.011719 2303.410156 682.449219 2286.609375 663.351562 C 2285.21875 661.78125 2284.5 658.761719 2285.539062 656.828125 C 2295.699219 638.070312 2306.570312 618.230469 2309.328125 596.75 C 2311.75 578.011719 2306.339844 559.828125 2300.171875 542.339844 C 2293.710938 524.011719 2292.839844 507.339844 2294.570312 488.101562 C 2296.730469 464.140625 2289.390625 446.640625 2282.25 424.371094 C 2277.160156 408.488281 2276.949219 395.640625 2282.460938 379.988281 C 2286.378906 368.851562 2290.671875 359.289062 2290.421875 347.179688 C 2290.238281 338.808594 2288.640625 330.351562 2287.308594 322.109375 C 2282.519531 292.449219 2272.96875 257.859375 2284.769531 228.738281 C 2282.171875 226.949219 2280.558594 224.410156 2279.589844 220.371094 C 2279.089844 218.28125 2280.101562 215.398438 2281.890625 214.171875 C 2284.949219 212.070312 2287.941406 209.820312 2290.839844 207.421875 C 2287.320312 180.589844 2291.429688 152.691406 2287.128906 126.148438 C 2284.949219 125.929688 2282.929688 124.589844 2281.71875 122.410156 C 2277.058594 113.988281 2276.820312 107.160156 2280.710938 98.359375 C 2282.878906 93.441406 2290.539062 92.46875 2292.808594 97.960938 C 2293.328125 99.21875 2293.808594 100.480469 2294.269531 101.738281 C 2294.371094 101.539062 2294.460938 101.328125 2294.558594 101.128906 L 2294.300781 93.101562 C 2286.621094 89.859375 2278.109375 87.769531 2269.339844 86.730469 C 2264.191406 86.128906 2261.980469 80.539062 2264.648438 76.351562 C 2276.808594 57.21875 2280.960938 32.539062 2283.648438 10.429688 C 2283.980469 7.691406 2284.308594 4.890625 2284.621094 2.03125 C 2284.328125 1.351562 2284.070312 0.679688 2283.800781 0 L 0 42.359375 L 57.953125 3758 L 2413.910156 3679.332031 C 2413.949219 3679.21875 2414 3679.109375 2414.039062 3679 L 2413.171875 3652.761719 "/>
</g>
<g clip-path="url(#clip-1)">
<g clip-path="url(#clip-2)">
<g clip-path="url(#clip-3)">
<path fill-rule="nonzero" fill="rgb(90.979004%, 78.430176%, 64.704895%)" fill-opacity="1" d="M 1292.605469 2883.878906 L 1299.125 2883.046875 L 1298.914062 2881.390625 L 1292.394531 2882.222656 Z M 1292.605469 2883.878906 "/>
</g>
</g>
</g>
<g clip-path="url(#clip-4)">
<g clip-path="url(#clip-5)">
<g clip-path="url(#clip-6)">
<path fill-rule="nonzero" fill="rgb(90.979004%, 78.430176%, 64.704895%)" fill-opacity="1" d="M 1107.835938 2909.097656 L 1135.988281 2905.503906 L 1133.464844 2885.753906 L 1105.3125 2889.347656 Z M 1107.835938 2909.097656 "/>
</g>
</g>
</g>
</svg>
